# Made in Blockbench 5.1.6
mtllib incomplete_2.mtl

o center
v 0.875 0 0.125
v 0.125 0 0.125
v 0.125 1 0.125
v 0.875 1 0.125
v 0.875 0 0.875
v 0.875 1 0.875
v 0.125 0 0.875
v 0.125 1 0.875
vt 0.75 0.5
vt 1 0.5
vt 1 0.8333333333333334
vt 0.75 0.8333333333333334
vt 0.75 0.5
vt 1 0.5
vt 1 0.8333333333333334
vt 0.75 0.8333333333333334
vt 0.75 0.5
vt 1 0.5
vt 1 0.8333333333333334
vt 0.75 0.8333333333333334
vt 0.75 0.5
vt 1 0.5
vt 1 0.8333333333333334
vt 0.75 0.8333333333333334
vt 0.75 0.25
vt 1 0.25
vt 1 0.5
vt 0.75 0.5
vt 0.75 0
vt 1 0
vt 1 0.25
vt 0.75 0.25
vn 0 0 -1
vn 1 0 0
vn 0 0 1
vn -1 0 0
vn 0 1 0
vn 0 -1 0
usemtl m_4718db1e-493b-23c1-f924-d20b66c45b3c
f 1/1/1 2/2/1 3/3/1 4/4/1
f 5/5/2 1/6/2 4/7/2 6/8/2
f 7/9/3 5/10/3 6/11/3 8/12/3
f 2/13/4 7/14/4 8/15/4 3/16/4
f 8/17/5 6/18/5 4/19/5 3/20/5
f 2/21/6 1/22/6 5/23/6 7/24/6
o cube
v 0.625 -0.125 0.375
v 0.375 -0.125 0.375
v 0.375 0 0.375
v 0.625 0 0.375
v 0.625 -0.125 0.625
v 0.625 0 0.625
v 0.375 -0.125 0.625
v 0.375 0 0.625
vt 0.8333333333333334 0.16666666666666663
vt 0.9166666666666666 0.16666666666666663
vt 0.9166666666666666 0.125
vt 0.8333333333333334 0.125
vt 0.8333333333333334 0.16666666666666663
vt 0.9166666666666666 0.16666666666666663
vt 0.9166666666666666 0.125
vt 0.8333333333333334 0.125
vt 0.8333333333333334 0.16666666666666663
vt 0.9166666666666666 0.16666666666666663
vt 0.9166666666666666 0.125
vt 0.8333333333333334 0.125
vt 0.8333333333333334 0.16666666666666663
vt 0.9166666666666666 0.16666666666666663
vt 0.9166666666666666 0.125
vt 0.8333333333333334 0.125
vt 0.8333333333333334 0.08333333333333337
vt 0.9166666666666666 0.08333333333333337
vt 0.9166666666666666 0.16666666666666663
vt 0.8333333333333334 0.16666666666666663
vn 0 0 -1
vn 1 0 0
vn 0 0 1
vn -1 0 0
vn 0 -1 0
usemtl m_4718db1e-493b-23c1-f924-d20b66c45b3c
f 9/25/7 10/26/7 11/27/7 12/28/7
f 13/29/8 9/30/8 12/31/8 14/32/8
f 15/33/9 13/34/9 14/35/9 16/36/9
f 10/37/10 15/38/10 16/39/10 11/40/10
f 10/41/11 9/42/11 13/43/11 15/44/11
o cube
v 0.27512023679041775 0.4375 0.4854968245269451
v -0.04963928962874686 0.4375 0.6729968245269451
v -0.04963928962874686 0.6875 0.6729968245269451
v 0.27512023679041775 0.6875 0.4854968245269451
v 0.07536071037125314 0.4375 0.8895031754730547
v 0.4001202367904177 0.4375 0.7020031754730548
v 0.4001202367904177 0.6875 0.7020031754730548
v 0.07536071037125314 0.6875 0.8895031754730547
vt 0.875 0.8333333333333334
vt 1 0.8333333333333334
vt 1 0.9166666666666666
vt 0.875 0.9166666666666666
vt 1 0.8333333333333334
vt 0.875 0.8333333333333334
vt 0.875 0.9166666666666666
vt 1 0.9166666666666666
vt 0.875 0.9166666666666666
vt 0.875 0.8333333333333334
vt 1 0.8333333333333334
vt 1 0.9166666666666666
vt 0.875 0.9166666666666666
vt 0.875 0.8333333333333334
vt 1 0.8333333333333334
vt 1 0.9166666666666666
vn -0.49999999999999983 0 -0.8660254037844387
vn 0.4999999999999997 0 0.8660254037844388
vn 0 1 0
vn 0 -1 0
usemtl m_4718db1e-493b-23c1-f924-d20b66c45b3c
f 17/45/12 18/46/12 19/47/12 20/48/12
f 21/49/13 22/50/13 23/51/13 24/52/13
f 23/53/14 20/54/14 19/55/14 24/56/14
f 21/57/15 18/58/15 17/59/15 22/60/15
o cube
v -0.7421472283113837 0 0.09853789008382463
v 0.22660277168861587 0 1.7764621099161748
v 0.22660277168861587 1 1.7764621099161748
v -0.7421472283113837 1 0.09853789008382463
v -0.47151428962874664 0 -0.05771210991617526
v -0.47151428962874664 1 -0.05771210991617526
v 0.4972357103712529 0 1.620212109916175
v 0.4972357103712529 1 1.620212109916175
vt 0 0.6666666666666667
vt 0.6458333333333334 0.6666666666666667
vt 0.6458333333333334 1
vt 0 1
vt 0.75 0.6666666666666667
vt 0.6458333333333334 0.6666666666666667
vt 0.6458333333333334 1
vt 0.75 1
vt 0 0.22916666666666663
vt 0.6458333333333334 0.22916666666666663
vt 0.6458333333333334 0.5625
vt 0 0.5625
vt 0.6458333333333334 0.6666666666666667
vt 0.75 0.6666666666666667
vt 0.75 1
vt 0.6458333333333334 1
vt 0 0.5625
vt 0.6458333333333334 0.5625
vt 0.6458333333333334 0.6666666666666667
vt 0 0.6666666666666667
vt 0 0.6666666666666667
vt 0.6458333333333334 0.6666666666666667
vt 0.6458333333333334 0.5625
vt 0 0.5625
vn -0.8660254037844388 0 0.49999999999999983
vn -0.49999999999999983 0 -0.8660254037844388
vn 0.8660254037844389 0 -0.49999999999999983
vn 0.49999999999999956 0 0.866025403784439
vn 0 1 0
vn 0 -1 0
usemtl m_4718db1e-493b-23c1-f924-d20b66c45b3c
f 25/61/16 26/62/16 27/63/16 28/64/16
f 29/65/17 25/66/17 28/67/17 30/68/17
f 31/69/18 29/70/18 30/71/18 32/72/18
f 26/73/19 31/74/19 32/75/19 27/76/19
f 32/77/20 30/78/20 28/79/20 27/80/20
f 26/81/21 25/82/21 29/83/21 31/84/21