# Made in Blockbench 5.1.6
mtllib incomplete_3.mtl

o center
v 0.875 0 0.125
v 0.125 0 0.125
v 0.125 1 0.125
v 0.875 1 0.125
v 0.875 0 0.875
v 0.875 1 0.875
v 0.125 0 0.875
v 0.125 1 0.875
vt 0 0.34375
vt 0.375 0.34375
vt 0.375 0.84375
vt 0 0.84375
vt 0 0.34375
vt 0.375 0.34375
vt 0.375 0.84375
vt 0 0.84375
vt 0 0.34375
vt 0.375 0.34375
vt 0.375 0.84375
vt 0 0.84375
vt 0 0.34375
vt 0.375 0.34375
vt 0.375 0.84375
vt 0 0.84375
vt 0.375 0.46875
vt 0.75 0.46875
vt 0.75 0.84375
vt 0.375 0.84375
vt 0.375 0.46875
vt 0.75 0.46875
vt 0.75 0.84375
vt 0.375 0.84375
vn 0 0 -1
vn 1 0 0
vn 0 0 1
vn -1 0 0
vn 0 1 0
vn 0 -1 0
usemtl m_6d2c9070-1bb2-bd34-944a-eb041a996b8e
f 1/1/1 2/2/1 3/3/1 4/4/1
f 5/5/2 1/6/2 4/7/2 6/8/2
f 7/9/3 5/10/3 6/11/3 8/12/3
f 2/13/4 7/14/4 8/15/4 3/16/4
f 8/17/5 6/18/5 4/19/5 3/20/5
f 2/21/6 1/22/6 5/23/6 7/24/6
o cube
v 0.27512 0.4375 0.485496875
v -0.049639375 0.4375 0.672996875
v -0.049639375 0.6875 0.672996875
v 0.27512 0.6875 0.485496875
v 0.075360625 0.4375 0.889503125
v 0.40012 0.4375 0.702003125
v 0.40012 0.6875 0.702003125
v 0.075360625 0.6875 0.889503125
vt 0.7499999999999983 0.71875
vt 0.9374999999999982 0.71875
vt 0.9374999999999982 0.84375
vt 0.7499999999999983 0.84375
vt 0.7500000000000017 0.71875
vt 0.9375000000000016 0.71875
vt 0.9375000000000016 0.84375
vt 0.7500000000000017 0.84375
vt 0.9375001437985409 0.7187511874958762
vt 0.9375001437985409 0.8437484374656254
vt 0.7500015625343773 0.8437500000000016
vt 0.7500000000000012 0.7187500437207128
vt 0.7500029812314998 0.8437494390243712
vt 0.7500014187309534 0.7187521890643876
vt 0.9375 0.7187514078141147
vt 0.9374999999999999 0.8437513641031695
vn -0.5000001748438418 0 -0.866025302838276
vn 0.5000001748438417 0 0.8660253028382761
vn 0 1 0
vn 0 -1 0
usemtl m_6d2c9070-1bb2-bd34-944a-eb041a996b8e
f 9/25/7 10/26/7 11/27/7 12/28/7
f 13/29/8 14/30/8 15/31/8 16/32/8
f 15/33/9 12/34/9 11/35/9 16/36/9
f 13/37/10 10/38/10 9/39/10 14/40/10
o cube
v 0.59988 0.4375 0.702003125
v 0.924639375 0.4375 0.889503125
v 0.924639375 0.6875 0.889503125
v 0.59988 0.6875 0.702003125
v 1.049639375 0.4375 0.672996875
v 0.72488 0.4375 0.485496875
v 0.72488 0.6875 0.485496875
v 1.049639375 0.6875 0.672996875
vt 0.7500000000000017 0.71875
vt 0.9375000000000018 0.71875
vt 0.9375000000000018 0.84375
vt 0.7500000000000017 0.84375
vt 0.7499999999999983 0.71875
vt 0.9374999999999982 0.71875
vt 0.9374999999999982 0.84375
vt 0.7499999999999983 0.84375
vt 0.750001078135141 0.8437510781351416
vt 0.750001078135141 0.7187511218460867
vt 0.9374996594041877 0.7187503405958133
vt 0.9374996594041877 0.8437502968848682
vt 0.937498581269046 0.7187500437109444
vt 0.937498581269046 0.8437499999999993
vt 0.7499999999999993 0.8437492187497262
vt 0.7499999999999992 0.7187492624606713
vn -0.5000001748438416 0 0.8660253028382761
vn 0.5000001748438418 0 -0.866025302838276
vn 0 1 0
vn 0 -1 0
usemtl m_6d2c9070-1bb2-bd34-944a-eb041a996b8e
f 17/41/11 18/42/11 19/43/11 20/44/11
f 21/45/12 22/46/12 23/47/12 24/48/12
f 23/49/13 20/50/13 19/51/13 24/52/13
f 21/53/14 18/54/14 17/55/14 22/56/14
o cube
v 0.625 -0.125 0.375
v 0.375 -0.125 0.375
v 0.375 0 0.375
v 0.625 0 0.375
v 0.625 -0.125 0.625
v 0.625 0 0.625
v 0.375 -0.125 0.625
v 0.375 0 0.625
vt 0.8333333333333333 0.16666666666666674
vt 0.9166666666666666 0.16666666666666674
vt 0.9166666666666666 0.125
vt 0.8333333333333333 0.125
vt 0.8333333333333333 0.16666666666666674
vt 0.9166666666666666 0.16666666666666674
vt 0.9166666666666666 0.125
vt 0.8333333333333333 0.125
vt 0.8333333333333333 0.16666666666666674
vt 0.9166666666666666 0.16666666666666674
vt 0.9166666666666666 0.125
vt 0.8333333333333333 0.125
vt 0.8333333333333333 0.16666666666666674
vt 0.9166666666666666 0.16666666666666674
vt 0.9166666666666666 0.125
vt 0.8333333333333333 0.125
vt 0.8333333333333333 0.08333333333333337
vt 0.9166666666666666 0.08333333333333337
vt 0.9166666666666666 0.16666666666666674
vt 0.8333333333333333 0.16666666666666674
vn 0 0 -1
vn 1 0 0
vn 0 0 1
vn -1 0 0
vn 0 -1 0
usemtl m_6d2c9070-1bb2-bd34-944a-eb041a996b8e
f 25/57/15 26/58/15 27/59/15 28/60/15
f 29/61/16 25/62/16 28/63/16 30/64/16
f 31/65/17 29/66/17 30/67/17 32/68/17
f 26/69/18 31/70/18 32/71/18 27/72/18
f 26/73/19 25/74/19 29/75/19 31/76/19
o cube
v -0.7421475 0 0.098538125
v 0.2266025 0 1.776461875
v 0.2266025 1 1.776461875
v -0.7421475 1 0.098538125
v -0.471514375 0 -0.057711875
v -0.471514375 1 -0.057711875
v 0.497235625 0 1.620211875
v 0.497235625 1 1.620211875
vt 1.7190550058712102e-15 0
vt 1.0000000000000018 0
vt 1.0000000000000018 1
vt 1.7190550058712102e-15 1
vt 0 0
vt 1 0
vt 1 1
vt 0 1
vt 0 0
vt 1 0
vt 1 1
vt 0 1
vt 0 0
vt 1 0
vt 1 1
vt 0 1
vt 0.9687499999999999 1
vt 0 0.9999999999999998
vt 0 0.8437480248914179
vt 0.9687488146578234 0.8437480248914181
vt 0.9687503378225217 0.9999999999999997
vt 0 1
vt 0.0000011088705809958466 0.8437480248914181
vt 0.9687514466931028 0.8437480248914178
vn -0.8660253431608905 0 0.5000001050030507
vn -0.49999974183120005 0 -0.8660255528382137
vn 0.8660253431608905 0 -0.5000001050030507
vn 0.49999974183119994 0 0.8660255528382137
vn 0 1 0
vn 0 -1 0
usemtl m_ef779b9e-2964-33b2-ea07-bf544e7c7055
f 33/77/20 34/78/20 35/79/20 36/80/20
usemtl m_c07ace89-d65a-4cf8-22df-8420f1dab10e
f 37/81/21 33/82/21 36/83/21 38/84/21
usemtl m_f42d5ce2-2265-01b2-ae32-c5f3ba69d76e
f 39/85/22 37/86/22 38/87/22 40/88/22
usemtl m_c07ace89-d65a-4cf8-22df-8420f1dab10e
f 34/89/23 39/90/23 40/91/23 35/92/23
usemtl m_6d2c9070-1bb2-bd34-944a-eb041a996b8e
f 40/93/24 38/94/24 36/95/24 35/96/24
f 34/97/25 33/98/25 37/99/25 39/100/25
o cube
v 0.7733975 0 1.776461875
v 1.7421475 0 0.098538125
v 1.7421475 1 0.098538125
v 0.7733975 1 1.776461875
v 0.502764375 0 1.620211875
v 0.502764375 1 1.620211875
v 1.471514375 0 -0.057711875
v 1.471514375 1 -0.057711875
vt 0 0
vt 1 0
vt 1 1
vt 0 1
vt 0 0
vt 1 0
vt 1 1
vt 0 1
vt 0 0
vt 1 0
vt 1 1
vt 0 1
vt 0 0
vt 1 0
vt 1 1
vt 0 1
vt 0.9687503378225217 0.9999999999999997
vt 0 1
vt 0.0000011088705809125798 0.8437480248914181
vt 0.9687514466931028 0.8437480248914176
vt 0 0.8437480248914175
vt 0.9687486778878603 0.8437480248914181
vt 0.96875 1
vt 0 0.9999999999999996
vn 0.8660253431608905 0 0.5000001050030507
vn -0.49999974183120005 0 0.8660255528382135
vn -0.8660253431608906 0 -0.5000001050030507
vn 0.49999974183119994 0 -0.8660255528382137
vn 0 1 0
vn 0 -1 0
usemtl m_ef779b9e-2964-33b2-ea07-bf544e7c7055
f 41/101/26 42/102/26 43/103/26 44/104/26
usemtl m_c07ace89-d65a-4cf8-22df-8420f1dab10e
f 45/105/27 41/106/27 44/107/27 46/108/27
usemtl m_f42d5ce2-2265-01b2-ae32-c5f3ba69d76e
f 47/109/28 45/110/28 46/111/28 48/112/28
usemtl m_c07ace89-d65a-4cf8-22df-8420f1dab10e
f 42/113/29 47/114/29 48/115/29 43/116/29
usemtl m_6d2c9070-1bb2-bd34-944a-eb041a996b8e
f 48/117/30 46/118/30 44/119/30 43/120/30
f 42/121/31 41/122/31 45/123/31 47/124/31