# Made in Blockbench 5.1.6
mtllib incomplete_1.mtl

o center
v 0.875 0 0.125
v 0.125 0 0.125
v 0.125 1 0.125
v 0.875 1 0.125
v 0.875 0 0.875
v 0.875 1 0.875
v 0.125 0 0.875
v 0.125 1 0.875
vt 0 0.34375
vt 0.375 0.34375
vt 0.375 0.84375
vt 0 0.84375
vt 0 0.34375
vt 0.375 0.34375
vt 0.375 0.84375
vt 0 0.84375
vt 0 0.34375
vt 0.375 0.34375
vt 0.375 0.84375
vt 0 0.84375
vt 0 0.34375
vt 0.375 0.34375
vt 0.375 0.84375
vt 0 0.84375
vt 0.375 0.46875
vt 0.75 0.46875
vt 0.75 0.84375
vt 0.375 0.84375
vt 0.375 0.46875
vt 0.75 0.46875
vt 0.75 0.84375
vt 0.375 0.84375
vn 0 0 -1
vn 1 0 0
vn 0 0 1
vn -1 0 0
vn 0 1 0
vn 0 -1 0
usemtl m_af06a26a-0c5d-cd22-f800-f8be7236c409
f 1/1/1 2/2/1 3/3/1 4/4/1
f 5/5/2 1/6/2 4/7/2 6/8/2
f 7/9/3 5/10/3 6/11/3 8/12/3
f 2/13/4 7/14/4 8/15/4 3/16/4
f 8/17/5 6/18/5 4/19/5 3/20/5
f 2/21/6 1/22/6 5/23/6 7/24/6