# Made in Blockbench 5.1.4
mtllib overview_module.mtl

o cube
v 1.46875 1 -0.0625
v 1.46875 1 -0.375
v 1.46875 0 -0.0625
v 1.46875 0 -0.375
v -0.46875 1 -0.375
v -0.46875 1 -0.0625
v -0.46875 0 -0.375
v -0.46875 0 -0.0625
vt 0 1
vt 0.6458333333333334 1
vt 0.6458333333333334 0.6666666666666667
vt 0 0.6666666666666667
vt 0.75 1
vt 0.6458333333333334 1
vt 0.6458333333333334 0.6666666666666667
vt 0.75 0.6666666666666667
vt 0 0.5625
vt 0.6458333333333334 0.5625
vt 0.6458333333333334 0.22916666666666663
vt 0 0.22916666666666663
vt 0.6458333333333334 1
vt 0.75 1
vt 0.75 0.6666666666666667
vt 0.6458333333333334 0.6666666666666667
vt 0 0.6666666666666667
vt 0.6458333333333334 0.6666666666666667
vt 0.6458333333333334 0.5625
vt 0 0.5625
vt 0 0.5625
vt 0.6458333333333334 0.5625
vt 0.6458333333333334 0.6666666666666667
vt 0 0.6666666666666667
vn 0 0 -1
vn 1 0 0
vn 0 0 1
vn -1 0 0
vn 0 1 0
vn 0 -1 0
usemtl m_676dd9d8-5624-2833-cbac-90ee32dc797b
f 4/4/1 7/3/1 5/2/1 2/1/1
f 3/8/2 4/7/2 2/6/2 1/5/2
f 8/12/3 3/11/3 1/10/3 6/9/3
f 7/16/4 8/15/4 6/14/4 5/13/4
f 6/20/5 1/19/5 2/18/5 5/17/5
f 7/24/6 4/23/6 3/22/6 8/21/6
o cube
v -0.47151428962874664 1 -0.057712109916175258
v -0.74214722831138369 1 0.098537890083824631
v -0.47151428962874664 0 -0.057712109916175258
v -0.74214722831138369 0 0.098537890083824631
v 0.22660277168861587 1 1.7764621099161748
v 0.49723571037125291 1 1.620212109916175
v 0.22660277168861587 0 1.7764621099161748
v 0.49723571037125291 0 1.620212109916175
vt 0 1
vt 0.6458333333333334 1
vt 0.6458333333333334 0.6666666666666667
vt 0 0.6666666666666667
vt 0.75 1
vt 0.6458333333333334 1
vt 0.6458333333333334 0.6666666666666667
vt 0.75 0.6666666666666667
vt 0 0.5625
vt 0.6458333333333334 0.5625
vt 0.6458333333333334 0.22916666666666663
vt 0 0.22916666666666663
vt 0.6458333333333334 1
vt 0.75 1
vt 0.75 0.6666666666666667
vt 0.6458333333333334 0.6666666666666667
vt 0 0.6666666666666667
vt 0.6458333333333334 0.6666666666666667
vt 0.6458333333333334 0.5625
vt 0 0.5625
vt 0 0.5625
vt 0.6458333333333334 0.5625
vt 0.6458333333333334 0.6666666666666667
vt 0 0.6666666666666667
vn -0.8660254037844388 0 0.4999999999999998
vn -0.4999999999999998 0 -0.8660254037844388
vn 0.8660254037844388 0 -0.4999999999999998
vn 0.4999999999999998 0 0.8660254037844388
vn 0 1 0
vn 0 -1 0
usemtl m_676dd9d8-5624-2833-cbac-90ee32dc797b
f 12/28/7 15/27/7 13/26/7 10/25/7
f 11/32/8 12/31/8 10/30/8 9/29/8
f 16/36/9 11/35/9 9/34/9 14/33/9
f 15/40/10 16/39/10 14/38/10 13/37/10
f 14/44/11 9/43/11 10/42/11 13/41/11
f 15/48/12 12/47/12 11/46/12 16/45/12
o cube
v 0.50276428962874709 1 1.620212109916175
v 0.77339722831138413 1 1.7764621099161748
v 0.50276428962874709 0 1.620212109916175
v 0.77339722831138413 0 1.7764621099161748
v 1.7421472283113837 1 0.098537890083824631
v 1.4715142896287468 1 -0.057712109916175258
v 1.7421472283113837 0 0.098537890083824631
v 1.4715142896287468 0 -0.057712109916175258
vt 0 1
vt 0.6458333333333334 1
vt 0.6458333333333334 0.6666666666666667
vt 0 0.6666666666666667
vt 0.75 1
vt 0.6458333333333334 1
vt 0.6458333333333334 0.6666666666666667
vt 0.75 0.6666666666666667
vt 0 0.5625
vt 0.6458333333333334 0.5625
vt 0.6458333333333334 0.22916666666666663
vt 0 0.22916666666666663
vt 0.6458333333333334 1
vt 0.75 1
vt 0.75 0.6666666666666667
vt 0.6458333333333334 0.6666666666666667
vt 0 0.6666666666666667
vt 0.6458333333333334 0.6666666666666667
vt 0.6458333333333334 0.5625
vt 0 0.5625
vt 0 0.5625
vt 0.6458333333333334 0.5625
vt 0.6458333333333334 0.6666666666666667
vt 0 0.6666666666666667
vn 0.8660254037844388 0 0.4999999999999998
vn -0.4999999999999998 0 0.8660254037844388
vn -0.8660254037844388 0 -0.4999999999999998
vn 0.4999999999999998 0 -0.8660254037844388
vn 0 1 0
vn 0 -1 0
usemtl m_676dd9d8-5624-2833-cbac-90ee32dc797b
f 20/52/13 23/51/13 21/50/13 18/49/13
f 19/56/14 20/55/14 18/54/14 17/53/14
f 24/60/15 19/59/15 17/58/15 22/57/15
f 23/64/16 24/63/16 22/62/16 21/61/16
f 22/68/17 17/67/17 18/66/17 21/65/17
f 23/72/18 20/71/18 19/70/18 24/69/18
o center
v 0.875 1 0.875
v 0.875 1 0.125
v 0.875 0 0.875
v 0.875 0 0.125
v 0.125 1 0.125
v 0.125 1 0.875
v 0.125 0 0.125
v 0.125 0 0.875
vt 0.75 0.8333333333333334
vt 1 0.8333333333333334
vt 1 0.5
vt 0.75 0.5
vt 0.75 0.8333333333333334
vt 1 0.8333333333333334
vt 1 0.5
vt 0.75 0.5
vt 0.75 0.8333333333333334
vt 1 0.8333333333333334
vt 1 0.5
vt 0.75 0.5
vt 0.75 0.8333333333333334
vt 1 0.8333333333333334
vt 1 0.5
vt 0.75 0.5
vt 0.75 0.5
vt 1 0.5
vt 1 0.25
vt 0.75 0.25
vt 0.75 0.25
vt 1 0.25
vt 1 0
vt 0.75 0
vn 0 0 -1
vn 1 0 0
vn 0 0 1
vn -1 0 0
vn 0 1 0
vn 0 -1 0
usemtl m_676dd9d8-5624-2833-cbac-90ee32dc797b
f 28/76/19 31/75/19 29/74/19 26/73/19
f 27/80/20 28/79/20 26/78/20 25/77/20
f 32/84/21 27/83/21 25/82/21 30/81/21
f 31/88/22 32/87/22 30/86/22 29/85/22
f 30/92/23 25/91/23 26/90/23 29/89/23
f 31/96/24 28/95/24 27/94/24 32/93/24
o cube
v 0.625 0.6875 0.3125
v 0.625 0.6875 -0.0625
v 0.625 0.4375 0.3125
v 0.625 0.4375 -0.0625
v 0.375 0.6875 -0.0625
v 0.375 0.6875 0.3125
v 0.375 0.4375 -0.0625
v 0.375 0.4375 0.3125
vt 0.875 0.9166666666666666
vt 1 0.9166666666666666
vt 1 0.8333333333333334
vt 0.875 0.8333333333333334
vt 1 0.9166666666666666
vt 0.875 0.9166666666666666
vt 0.875 0.8333333333333334
vt 1 0.8333333333333334
vt 1 0.9166666666666666
vt 1 0.8333333333333334
vt 0.875 0.8333333333333334
vt 0.875 0.9166666666666666
vt 1 0.9166666666666666
vt 1 0.8333333333333334
vt 0.875 0.8333333333333334
vt 0.875 0.9166666666666666
vn 1 0 0
vn -1 0 0
vn 0 1 0
vn 0 -1 0
usemtl m_676dd9d8-5624-2833-cbac-90ee32dc797b
f 35/100/25 36/99/25 34/98/25 33/97/25
f 39/104/26 40/103/26 38/102/26 37/101/26
f 38/108/27 33/107/27 34/106/27 37/105/27
f 39/112/28 36/111/28 35/110/28 40/109/28
o cube
v 0.27512023679041775 0.6875 0.48549682452694509
v -0.049639289628746863 0.6875 0.67299682452694509
v 0.27512023679041775 0.4375 0.48549682452694509
v -0.049639289628746863 0.4375 0.67299682452694509
v 0.075360710371253137 0.6875 0.88950317547305469
v 0.40012023679041769 0.6875 0.7020031754730548
v 0.075360710371253137 0.4375 0.88950317547305469
v 0.40012023679041769 0.4375 0.7020031754730548
vt 0.875 0.9166666666666666
vt 1 0.9166666666666666
vt 1 0.8333333333333334
vt 0.875 0.8333333333333334
vt 1 0.9166666666666666
vt 0.875 0.9166666666666666
vt 0.875 0.8333333333333334
vt 1 0.8333333333333334
vt 1 0.9166666666666666
vt 1 0.8333333333333334
vt 0.875 0.8333333333333334
vt 0.875 0.9166666666666666
vt 1 0.9166666666666666
vt 1 0.8333333333333334
vt 0.875 0.8333333333333334
vt 0.875 0.9166666666666666
vn -0.4999999999999998 0 -0.8660254037844388
vn 0.4999999999999998 0 0.8660254037844388
vn 0 1 0
vn 0 -1 0
usemtl m_676dd9d8-5624-2833-cbac-90ee32dc797b
f 43/116/29 44/115/29 42/114/29 41/113/29
f 47/120/30 48/119/30 46/118/30 45/117/30
f 46/124/31 41/123/31 42/122/31 45/121/31
f 47/128/32 44/127/32 43/126/32 48/125/32
o cube
v 0.59987976320958225 0.6875 0.7020031754730548
v 0.92463928962874686 0.6875 0.88950317547305469
v 0.59987976320958225 0.4375 0.7020031754730548
v 0.92463928962874686 0.4375 0.88950317547305469
v 1.0496392896287468 0.6875 0.67299682452694509
v 0.72487976320958225 0.6875 0.48549682452694509
v 1.0496392896287468 0.4375 0.67299682452694509
v 0.72487976320958225 0.4375 0.48549682452694509
vt 0.875 0.9166666666666666
vt 1 0.9166666666666666
vt 1 0.8333333333333334
vt 0.875 0.8333333333333334
vt 1 0.9166666666666666
vt 0.875 0.9166666666666666
vt 0.875 0.8333333333333334
vt 1 0.8333333333333334
vt 1 0.9166666666666666
vt 1 0.8333333333333334
vt 0.875 0.8333333333333334
vt 0.875 0.9166666666666666
vt 1 0.9166666666666666
vt 1 0.8333333333333334
vt 0.875 0.8333333333333334
vt 0.875 0.9166666666666666
vn -0.4999999999999998 0 0.8660254037844388
vn 0.4999999999999998 0 -0.8660254037844388
vn 0 1 0
vn 0 -1 0
usemtl m_676dd9d8-5624-2833-cbac-90ee32dc797b
f 51/132/33 52/131/33 50/130/33 49/129/33
f 55/136/34 56/135/34 54/134/34 53/133/34
f 54/140/35 49/139/35 50/138/35 53/137/35
f 55/144/36 52/143/36 51/142/36 56/141/36
o cube
v 0.625 0 0.625
v 0.625 0 0.375
v 0.625 -0.125 0.625
v 0.625 -0.125 0.375
v 0.375 0 0.375
v 0.375 0 0.625
v 0.375 -0.125 0.375
v 0.375 -0.125 0.625
vt 0.8333333333333334 0.125
vt 0.9166666666666666 0.125
vt 0.9166666666666666 0.16666666666666663
vt 0.8333333333333334 0.16666666666666663
vt 0.8333333333333334 0.125
vt 0.9166666666666666 0.125
vt 0.9166666666666666 0.16666666666666663
vt 0.8333333333333334 0.16666666666666663
vt 0.8333333333333334 0.125
vt 0.9166666666666666 0.125
vt 0.9166666666666666 0.16666666666666663
vt 0.8333333333333334 0.16666666666666663
vt 0.8333333333333334 0.125
vt 0.9166666666666666 0.125
vt 0.9166666666666666 0.16666666666666663
vt 0.8333333333333334 0.16666666666666663
vt 0.8333333333333334 0.16666666666666663
vt 0.9166666666666666 0.16666666666666663
vt 0.9166666666666666 0.08333333333333337
vt 0.8333333333333334 0.08333333333333337
vn 0 0 -1
vn 1 0 0
vn 0 0 1
vn -1 0 0
vn 0 -1 0
usemtl m_676dd9d8-5624-2833-cbac-90ee32dc797b
f 60/148/37 63/147/37 61/146/37 58/145/37
f 59/152/38 60/151/38 58/150/38 57/149/38
f 64/156/39 59/155/39 57/154/39 62/153/39
f 63/160/40 64/159/40 62/158/40 61/157/40
f 63/164/41 60/163/41 59/162/41 64/161/41
