# Made in Blockbench 5.1.6
mtllib bottom.mtl

o cube
v 0.625 0.4375 0.3125
v 0.625 0.4375 -0.0625
v 0.625 0.6875 -0.0625
v 0.625 0.6875 0.3125
v 0.375 0.4375 -0.0625
v 0.375 0.4375 0.3125
v 0.375 0.6875 0.3125
v 0.375 0.6875 -0.0625
vt 0.65625 0.9375
vt 0.75 0.9375
vt 0.75 1
vt 0.65625 1
vt 0.75 0.9375
vt 0.65625 0.9375
vt 0.65625 1
vt 0.75 1
vt 0.65625 1
vt 0.65625 0.9375
vt 0.75 0.9375
vt 0.75 1
vt 0.65625 1
vt 0.65625 0.9375
vt 0.75 0.9375
vt 0.75 1
vn 1 0 0
vn -1 0 0
vn 0 1 0
vn 0 -1 0
usemtl m_34d0fced-f029-addd-b2f8-561d4fce6511
f 1/1/1 2/2/1 3/3/1 4/4/1
f 5/5/2 6/6/2 7/7/2 8/8/2
f 7/9/3 4/10/3 3/11/3 8/12/3
f 5/13/4 2/14/4 1/15/4 6/16/4
o cube
v -0.7421472283113837 0 0.09853789008382463
v 0.22660277168861587 0 1.7764621099161748
v 0.22660277168861587 1 1.7764621099161748
v -0.7421472283113837 1 0.09853789008382463
v -0.47151428962874664 0 -0.05771210991617526
v -0.47151428962874664 1 -0.05771210991617526
v 0.4972357103712529 0 1.620212109916175
v 0.4972357103712529 1 1.620212109916175
vt 0 0
vt 0.484375 0
vt 0.484375 0.25
vt 0 0.25
vt 0.5625 0.75
vt 0.484375 0.75
vt 0.484375 1
vt 0.5625 1
vt 0 0.421875
vt 0.484375 0.421875
vt 0.484375 0.671875
vt 0 0.671875
vt 0.484375 0.75
vt 0.5625 0.75
vt 0.5625 1
vt 0.484375 1
vt 0 0.671875
vt 0.484375 0.671875
vt 0.484375 0.75
vt 0 0.75
vt 0 0.75
vt 0.484375 0.75
vt 0.484375 0.671875
vt 0 0.671875
vn -0.8660254037844388 0 0.49999999999999983
vn -0.49999999999999983 0 -0.8660254037844388
vn 0.8660254037844389 0 -0.49999999999999983
vn 0.49999999999999956 0 0.866025403784439
vn 0 1 0
vn 0 -1 0
usemtl m_34d0fced-f029-addd-b2f8-561d4fce6511
f 9/17/5 10/18/5 11/19/5 12/20/5
f 13/21/6 9/22/6 12/23/6 14/24/6
f 15/25/7 13/26/7 14/27/7 16/28/7
f 10/29/8 15/30/8 16/31/8 11/32/8
f 16/33/9 14/34/9 12/35/9 11/36/9
f 10/37/10 9/38/10 13/39/10 15/40/10
o cube
v 0.7733972283113841 0 1.7764621099161748
v 1.7421472283113837 0 0.09853789008382463
v 1.7421472283113837 1 0.09853789008382463
v 0.7733972283113841 1 1.7764621099161748
v 0.5027642896287471 0 1.620212109916175
v 0.5027642896287471 1 1.620212109916175
v 1.4715142896287468 0 -0.05771210991617526
v 1.4715142896287468 1 -0.05771210991617526
vt 0 0
vt 0.484375 0
vt 0.484375 0.25
vt 0 0.25
vt 0.5625 0.75
vt 0.484375 0.75
vt 0.484375 1
vt 0.5625 1
vt 0 0.421875
vt 0.484375 0.421875
vt 0.484375 0.671875
vt 0 0.671875
vt 0.484375 0.75
vt 0.5625 0.75
vt 0.5625 1
vt 0.484375 1
vt 0 0.671875
vt 0.484375 0.671875
vt 0.484375 0.75
vt 0 0.75
vt 0 0.75
vt 0.484375 0.75
vt 0.484375 0.671875
vt 0 0.671875
vn 0.8660254037844388 0 0.49999999999999983
vn -0.49999999999999956 0 0.866025403784439
vn -0.8660254037844389 0 -0.4999999999999999
vn 0.4999999999999999 0 -0.8660254037844387
vn 0 1 0
vn 0 -1 0
usemtl m_34d0fced-f029-addd-b2f8-561d4fce6511
f 17/41/11 18/42/11 19/43/11 20/44/11
f 21/45/12 17/46/12 20/47/12 22/48/12
f 23/49/13 21/50/13 22/51/13 24/52/13
f 18/53/14 23/54/14 24/55/14 19/56/14
f 24/57/15 22/58/15 20/59/15 19/60/15
f 18/61/16 17/62/16 21/63/16 23/64/16
o center
v 0.875 0 0.125
v 0.125 0 0.125
v 0.125 1 0.125
v 0.875 1 0.125
v 0.875 0 0.875
v 0.875 1 0.875
v 0.125 0 0.875
v 0.125 1 0.875
vt 0.5625 0.6875
vt 0.7500000000000003 0.6875
vt 0.7500000000000003 0.9375
vt 0.5625 0.9375
vt 0.5625 0.6875
vt 0.7500000000000003 0.6875
vt 0.7500000000000003 0.9375
vt 0.5625 0.9375
vt 0.5625 0.6875
vt 0.7500000000000003 0.6875
vt 0.7500000000000003 0.9375
vt 0.5625 0.9375
vt 0.5625 0.6875
vt 0.7500000000000003 0.6875
vt 0.7500000000000003 0.9375
vt 0.5625 0.9375
vt 0.5625 0.5000000000000001
vt 0.75 0.5000000000000001
vt 0.75 0.6875
vt 0.5625 0.6875
vt 0.5625 0.3125000000000001
vt 0.75 0.3125000000000001
vt 0.75 0.5000000000000001
vt 0.5625 0.5000000000000001
vn 0 0 -1
vn 1 0 0
vn 0 0 1
vn -1 0 0
vn 0 1 0
vn 0 -1 0
usemtl m_34d0fced-f029-addd-b2f8-561d4fce6511
f 25/65/17 26/66/17 27/67/17 28/68/17
f 29/69/18 25/70/18 28/71/18 30/72/18
f 31/73/19 29/74/19 30/75/19 32/76/19
f 26/77/20 31/78/20 32/79/20 27/80/20
f 32/81/21 30/82/21 28/83/21 27/84/21
f 26/85/22 25/86/22 29/87/22 31/88/22
o cube
v 0.27512023679041775 0.4375 0.4854968245269451
v -0.04963928962874686 0.4375 0.6729968245269451
v -0.04963928962874686 0.6875 0.6729968245269451
v 0.27512023679041775 0.6875 0.4854968245269451
v 0.07536071037125314 0.4375 0.8895031754730547
v 0.4001202367904177 0.4375 0.7020031754730548
v 0.4001202367904177 0.6875 0.7020031754730548
v 0.07536071037125314 0.6875 0.8895031754730547
vt 0.65625 0.9375
vt 0.75 0.9375
vt 0.75 1
vt 0.65625 1
vt 0.75 0.9375
vt 0.65625 0.9375
vt 0.65625 1
vt 0.75 1
vt 0.65625 1
vt 0.65625 0.9375
vt 0.75 0.9375
vt 0.75 1
vt 0.65625 1
vt 0.65625 0.9375
vt 0.75 0.9375
vt 0.75 1
vn -0.49999999999999983 0 -0.8660254037844387
vn 0.4999999999999997 0 0.8660254037844388
vn 0 1 0
vn 0 -1 0
usemtl m_34d0fced-f029-addd-b2f8-561d4fce6511
f 33/89/23 34/90/23 35/91/23 36/92/23
f 37/93/24 38/94/24 39/95/24 40/96/24
f 39/97/25 36/98/25 35/99/25 40/100/25
f 37/101/26 34/102/26 33/103/26 38/104/26
o cube
v 0.5998797632095823 0.4375 0.7020031754730548
v 0.9246392896287469 0.4375 0.8895031754730547
v 0.9246392896287469 0.6875 0.8895031754730547
v 0.5998797632095823 0.6875 0.7020031754730548
v 1.0496392896287468 0.4375 0.6729968245269451
v 0.7248797632095823 0.4375 0.4854968245269451
v 0.7248797632095823 0.6875 0.4854968245269451
v 1.0496392896287468 0.6875 0.6729968245269451
vt 0.65625 0.9375
vt 0.75 0.9375
vt 0.75 1
vt 0.65625 1
vt 0.75 0.9375
vt 0.65625 0.9375
vt 0.65625 1
vt 0.75 1
vt 0.65625 1
vt 0.65625 0.9375
vt 0.75 0.9375
vt 0.75 1
vt 0.65625 1
vt 0.65625 0.9375
vt 0.75 0.9375
vt 0.75 1
vn -0.4999999999999996 0 0.8660254037844388
vn 0.5 0 -0.8660254037844387
vn 0 1 0
vn 0 -1 0
usemtl m_34d0fced-f029-addd-b2f8-561d4fce6511
f 41/105/27 42/106/27 43/107/27 44/108/27
f 45/109/28 46/110/28 47/111/28 48/112/28
f 47/113/29 44/114/29 43/115/29 48/116/29
f 45/117/30 42/118/30 41/119/30 46/120/30
o cube
v 0.625 -0.125 0.375
v 0.375 -0.125 0.375
v 0.375 0 0.375
v 0.625 0 0.375
v 0.625 -0.125 0.625
v 0.625 0 0.625
v 0.375 -0.125 0.625
v 0.375 0 0.625
vt 0.625 0.375
vt 0.6875 0.375
vt 0.6875 0.34375
vt 0.625 0.34375
vt 0.625 0.390625
vt 0.6875 0.390625
vt 0.6875 0.359375
vt 0.625 0.359375
vt 0.625 0.390625
vt 0.6875 0.390625
vt 0.6875 0.359375
vt 0.625 0.359375
vt 0.625 0.390625
vt 0.6875 0.390625
vt 0.6875 0.359375
vt 0.625 0.359375
vt 0.625 0.3750000000000001
vt 0.6875 0.3750000000000001
vt 0.6875 0.4375000000000001
vt 0.625 0.4375000000000001
vn 0 0 -1
vn 1 0 0
vn 0 0 1
vn -1 0 0
vn 0 -1 0
usemtl m_34d0fced-f029-addd-b2f8-561d4fce6511
f 49/121/31 50/122/31 51/123/31 52/124/31
f 53/125/32 49/126/32 52/127/32 54/128/32
f 55/129/33 53/130/33 54/131/33 56/132/33
f 50/133/34 55/134/34 56/135/34 51/136/34
f 50/137/35 49/138/35 53/139/35 55/140/35
o cube
v 1.46875 0 -0.375
v -0.46875 0 -0.375
v -0.46875 1 -0.375
v 1.46875 1 -0.375
v 1.46875 0 -0.0625
v 1.46875 1 -0.0625
v -0.46875 0 -0.0625
v -0.46875 1 -0.0625
vt 0 0
vt 0.484375 0
vt 0.484375 0.25
vt 0 0.25
vt 0.5625 0.75
vt 0.484375 0.75
vt 0.484375 1
vt 0.5625 1
vt 0 0.421875
vt 0.484375 0.421875
vt 0.484375 0.671875
vt 0 0.671875
vt 0.484375 0.75
vt 0.5625 0.75
vt 0.5625 1
vt 0.484375 1
vt 0 0.671875
vt 0.484375 0.671875
vt 0.484375 0.75
vt 0 0.75
vt 0 0.75
vt 0.484375 0.75
vt 0.484375 0.671875
vt 0 0.671875
vn 0 0 -1
vn 1 0 0
vn 0 0 1
vn -1 0 0
vn 0 1 0
vn 0 -1 0
usemtl m_34d0fced-f029-addd-b2f8-561d4fce6511
f 57/141/36 58/142/36 59/143/36 60/144/36
f 61/145/37 57/146/37 60/147/37 62/148/37
f 63/149/38 61/150/38 62/151/38 64/152/38
f 58/153/39 63/154/39 64/155/39 59/156/39
f 64/157/40 62/158/40 60/159/40 59/160/40
f 58/161/41 57/162/41 61/163/41 63/164/41