# Made in Blockbench 5.1.6
mtllib overview_module.mtl

o panel3
v 1.46875 0 -0.375
v -0.46875 0 -0.375
v -0.46875 1 -0.375
v 1.46875 1 -0.375
v 1.46875 0 -0.0625
v 1.46875 1 -0.0625
v -0.46875 0 -0.0625
v -0.46875 1 -0.0625
vt 0 0
vt 1 0
vt 1 1
vt 0 1
vt 1 0
vt 0 0
vt 0 1
vt 1 1
vt 0 0
vt 1 0
vt 1 1
vt 0 1
vt 0 0
vt 1 0
vt 1 1
vt 0 1
vt 0 0.84375
vt 0.96875 0.84375
vt 0.96875 1
vt 0 1
vt 0 1
vt 0.96875 1
vt 0.96875 0.84375
vt 0 0.84375
vn 0 0 -1
vn 1 0 0
vn 0 0 1
vn -1 0 0
vn 0 1 0
vn 0 -1 0
usemtl m_7b8e3bfd-a73a-8e69-e0f9-3fb673841baa
f 1/1/1 2/2/1 3/3/1 4/4/1
usemtl m_0fb2c600-381e-c9c2-b4ef-6ec02d4f3690
f 5/5/2 1/6/2 4/7/2 6/8/2
usemtl m_94a5560f-7a70-d0ac-1964-82647a764650
f 7/9/3 5/10/3 6/11/3 8/12/3
usemtl m_0fb2c600-381e-c9c2-b4ef-6ec02d4f3690
f 2/13/4 7/14/4 8/15/4 3/16/4
usemtl m_febf5445-4979-b322-5d6e-44b822892974
f 8/17/5 6/18/5 4/19/5 3/20/5
f 2/21/6 1/22/6 5/23/6 7/24/6
o panel1
v -0.7421475 0 0.098538125
v 0.2266025 0 1.776461875
v 0.2266025 1 1.776461875
v -0.7421475 1 0.098538125
v -0.471514375 0 -0.057711875
v -0.471514375 1 -0.057711875
v 0.497235625 0 1.620211875
v 0.497235625 1 1.620211875
vt 0 0
vt 1 0
vt 1 1
vt 0 1
vt 1 0
vt 0 0
vt 0 1
vt 1 1
vt 0 0
vt 1 0
vt 1 1
vt 0 1
vt 0 0
vt 1 0
vt 1 1
vt 0 1
vt 0 0.84375
vt 0.96875 0.84375
vt 0.96875 1
vt 0 1
vt 0 1
vt 0.96875 1
vt 0.96875 0.84375
vt 0 0.84375
vn -0.8660253431608905 0 0.5000001050030507
vn -0.49999974183120005 0 -0.8660255528382137
vn 0.8660253431608905 0 -0.5000001050030507
vn 0.49999974183119994 0 0.8660255528382137
vn 0 1 0
vn 0 -1 0
usemtl m_7b8e3bfd-a73a-8e69-e0f9-3fb673841baa
f 9/25/7 10/26/7 11/27/7 12/28/7
usemtl m_0fb2c600-381e-c9c2-b4ef-6ec02d4f3690
f 13/29/8 9/30/8 12/31/8 14/32/8
usemtl m_94a5560f-7a70-d0ac-1964-82647a764650
f 15/33/9 13/34/9 14/35/9 16/36/9
usemtl m_0fb2c600-381e-c9c2-b4ef-6ec02d4f3690
f 10/37/10 15/38/10 16/39/10 11/40/10
usemtl m_febf5445-4979-b322-5d6e-44b822892974
f 16/41/11 14/42/11 12/43/11 11/44/11
f 10/45/12 9/46/12 13/47/12 15/48/12
o panel2
v 0.7733975 0 1.776461875
v 1.7421475 0 0.098538125
v 1.7421475 1 0.098538125
v 0.7733975 1 1.776461875
v 0.502764375 0 1.620211875
v 0.502764375 1 1.620211875
v 1.471514375 0 -0.057711875
v 1.471514375 1 -0.057711875
vt 0 0
vt 1 0
vt 1 1
vt 0 1
vt 1 0
vt 0 0
vt 0 1
vt 1 1
vt 0 0
vt 1 0
vt 1 1
vt 0 1
vt 0 0
vt 1 0
vt 1 1
vt 0 1
vt 0 0.84375
vt 0.96875 0.84375
vt 0.96875 1
vt 0 1
vt 0 1
vt 0.96875 1
vt 0.96875 0.84375
vt 0 0.84375
vn 0.8660253431608905 0 0.5000001050030507
vn -0.49999974183120005 0 0.8660255528382135
vn -0.8660253431608906 0 -0.5000001050030507
vn 0.49999974183119994 0 -0.8660255528382137
vn 0 1 0
vn 0 -1 0
usemtl m_7b8e3bfd-a73a-8e69-e0f9-3fb673841baa
f 17/49/13 18/50/13 19/51/13 20/52/13
usemtl m_0fb2c600-381e-c9c2-b4ef-6ec02d4f3690
f 21/53/14 17/54/14 20/55/14 22/56/14
usemtl m_94a5560f-7a70-d0ac-1964-82647a764650
f 23/57/15 21/58/15 22/59/15 24/60/15
usemtl m_0fb2c600-381e-c9c2-b4ef-6ec02d4f3690
f 18/61/16 23/62/16 24/63/16 19/64/16
usemtl m_febf5445-4979-b322-5d6e-44b822892974
f 24/65/17 22/66/17 20/67/17 19/68/17
f 18/69/18 17/70/18 21/71/18 23/72/18
o center
v 0.875 0 0.125
v 0.125 0 0.125
v 0.125 1 0.125
v 0.875 1 0.125
v 0.875 0 0.875
v 0.875 1 0.875
v 0.125 0 0.875
v 0.125 1 0.875
vt 0 0.34375
vt 0.375 0.34375
vt 0.375 0.84375
vt 0 0.84375
vt 0 0.34375
vt 0.375 0.34375
vt 0.375 0.84375
vt 0 0.84375
vt 0 0.34375
vt 0.375 0.34375
vt 0.375 0.84375
vt 0 0.84375
vt 0 0.34375
vt 0.375 0.34375
vt 0.375 0.84375
vt 0 0.84375
vt 0.375 0.46875
vt 0.75 0.46875
vt 0.75 0.84375
vt 0.375 0.84375
vt 0.375 0.46875
vt 0.75 0.46875
vt 0.75 0.84375
vt 0.375 0.84375
vn 0 0 -1
vn 1 0 0
vn 0 0 1
vn -1 0 0
vn 0 1 0
vn 0 -1 0
usemtl m_febf5445-4979-b322-5d6e-44b822892974
f 25/73/19 26/74/19 27/75/19 28/76/19
f 29/77/20 25/78/20 28/79/20 30/80/20
f 31/81/21 29/82/21 30/83/21 32/84/21
f 26/85/22 31/86/22 32/87/22 27/88/22
f 32/89/23 30/90/23 28/91/23 27/92/23
f 26/93/24 25/94/24 29/95/24 31/96/24
o cube
v 0.625 0.4375 0.3125
v 0.625 0.4375 -0.0625
v 0.625 0.6875 -0.0625
v 0.625 0.6875 0.3125
v 0.375 0.4375 -0.0625
v 0.375 0.4375 0.3125
v 0.375 0.6875 0.3125
v 0.375 0.6875 -0.0625
vt 0.75 0.71875
vt 0.9375 0.71875
vt 0.9375 0.84375
vt 0.75 0.84375
vt 0.9375 0.71875
vt 0.75 0.71875
vt 0.75 0.84375
vt 0.9375 0.84375
vt 0.75 0.84375
vt 0.75 0.71875
vt 0.9375 0.71875
vt 0.9375 0.84375
vt 0.75 0.84375
vt 0.75 0.71875
vt 0.9375 0.71875
vt 0.9375 0.84375
vn 1 0 0
vn -1 0 0
vn 0 1 0
vn 0 -1 0
usemtl m_febf5445-4979-b322-5d6e-44b822892974
f 33/97/25 34/98/25 35/99/25 36/100/25
f 37/101/26 38/102/26 39/103/26 40/104/26
f 39/105/27 36/106/27 35/107/27 40/108/27
f 37/109/28 34/110/28 33/111/28 38/112/28
o cube
v 0.27512 0.4375 0.485496875
v -0.049639375 0.4375 0.672996875
v -0.049639375 0.6875 0.672996875
v 0.27512 0.6875 0.485496875
v 0.075360625 0.4375 0.889503125
v 0.40012 0.4375 0.702003125
v 0.40012 0.6875 0.702003125
v 0.075360625 0.6875 0.889503125
vt 0.75 0.71875
vt 0.9375 0.71875
vt 0.9375 0.84375
vt 0.75 0.84375
vt 0.9375 0.71875
vt 0.75 0.71875
vt 0.75 0.84375
vt 0.9375 0.84375
vt 0.75 0.84375
vt 0.75 0.71875
vt 0.9375 0.71875
vt 0.9375 0.84375
vt 0.75 0.84375
vt 0.75 0.71875
vt 0.9375 0.71875
vt 0.9375 0.84375
vn -0.5000001748438418 0 -0.866025302838276
vn 0.5000001748438417 0 0.8660253028382761
vn 0 1 0
vn 0 -1 0
usemtl m_febf5445-4979-b322-5d6e-44b822892974
f 41/113/29 42/114/29 43/115/29 44/116/29
f 45/117/30 46/118/30 47/119/30 48/120/30
f 47/121/31 44/122/31 43/123/31 48/124/31
f 45/125/32 42/126/32 41/127/32 46/128/32
o cube
v 0.59988 0.4375 0.702003125
v 0.924639375 0.4375 0.889503125
v 0.924639375 0.6875 0.889503125
v 0.59988 0.6875 0.702003125
v 1.049639375 0.4375 0.672996875
v 0.72488 0.4375 0.485496875
v 0.72488 0.6875 0.485496875
v 1.049639375 0.6875 0.672996875
vt 0.75 0.71875
vt 0.9375 0.71875
vt 0.9375 0.84375
vt 0.75 0.84375
vt 0.9375 0.71875
vt 0.75 0.71875
vt 0.75 0.84375
vt 0.9375 0.84375
vt 0.75 0.84375
vt 0.75 0.71875
vt 0.9375 0.71875
vt 0.9375 0.84375
vt 0.75 0.84375
vt 0.75 0.71875
vt 0.9375 0.71875
vt 0.9375 0.84375
vn -0.5000001748438416 0 0.8660253028382761
vn 0.5000001748438418 0 -0.866025302838276
vn 0 1 0
vn 0 -1 0
usemtl m_febf5445-4979-b322-5d6e-44b822892974
f 49/129/33 50/130/33 51/131/33 52/132/33
f 53/133/34 54/134/34 55/135/34 56/136/34
f 55/137/35 52/138/35 51/139/35 56/140/35
f 53/141/36 50/142/36 49/143/36 54/144/36
